<?xml version="1.0" encoding="utf-8" standalone="no"?>
<!DOCTYPE svg PUBLIC "-//W3C//DTD SVG 1.1//EN"
  "http://www.w3.org/Graphics/SVG/1.1/DTD/svg11.dtd">
<svg xmlns:xlink="http://www.w3.org/1999/xlink" width="333.08pt" height="333.08pt" viewBox="0 0 333.08 333.08" xmlns="http://www.w3.org/2000/svg" version="1.1">
 <metadata>
  <rdf:RDF xmlns:dc="http://purl.org/dc/elements/1.1/" xmlns:cc="http://creativecommons.org/ns#" xmlns:rdf="http://www.w3.org/1999/02/22-rdf-syntax-ns#">
   <cc:Work>
    <dc:type rdf:resource="http://purl.org/dc/dcmitype/StillImage"/>
    <dc:date>2025-12-23T08:40:43.589584</dc:date>
    <dc:format>image/svg+xml</dc:format>
    <dc:creator>
     <cc:Agent>
      <dc:title>Matplotlib v3.8.4, https://matplotlib.org/</dc:title>
     </cc:Agent>
    </dc:creator>
   </cc:Work>
  </rdf:RDF>
 </metadata>
 <defs>
  <style type="text/css">*{stroke-linejoin: round; stroke-linecap: butt}</style>
 </defs>
 <g id="figure_1">
  <g id="patch_1">
   <path d="M 0 333.08 
L 333.08 333.08 
L 333.08 0 
L 0 0 
L 0 333.08 
z
" style="fill: none"/>
  </g>
  <g id="axes_1">
   <g id="patch_2">
    <path d="M 34.46 107.104 
L 298.62 107.104 
L 298.62 47.668 
L 34.46 47.668 
z
" clip-path="url(#pd49abf1fda)" style="fill: #94d2bd; opacity: 0.22"/>
   </g>
   <g id="patch_3">
    <path d="M 34.46 192.956 
L 298.62 192.956 
L 298.62 133.52 
L 34.46 133.52 
z
" clip-path="url(#pd49abf1fda)" style="fill: #0a9396; opacity: 0.1"/>
   </g>
   <g id="patch_4">
    <path d="M 34.46 285.412 
L 298.62 285.412 
L 298.62 225.976 
L 34.46 225.976 
z
" clip-path="url(#pd49abf1fda)" style="fill: #ffd166; opacity: 0.18"/>
   </g>
   <g id="patch_5">
    <path d="M 117.01 87.292 
C 120.512803 87.292 123.872611 85.900322 126.349466 83.423466 
C 128.826322 80.946611 130.218 77.586803 130.218 74.084 
C 130.218 70.581197 128.826322 67.221389 126.349466 64.744534 
C 123.872611 62.267678 120.512803 60.876 117.01 60.876 
C 113.507197 60.876 110.147389 62.267678 107.670534 64.744534 
C 105.193678 67.221389 103.802 70.581197 103.802 74.084 
C 103.802 77.586803 105.193678 80.946611 107.670534 83.423466 
C 110.147389 85.900322 113.507197 87.292 117.01 87.292 
z
" clip-path="url(#pd49abf1fda)" style="fill: #94d2bd; stroke: #005f73; stroke-width: 1.8; stroke-linejoin: miter"/>
   </g>
   <g id="patch_6">
    <path d="M 183.05 77.386 
C 186.552803 77.386 189.912611 75.994322 192.389466 73.517466 
C 194.866322 71.040611 196.258 67.680803 196.258 64.178 
C 196.258 60.675197 194.866322 57.315389 192.389466 54.838534 
C 189.912611 52.361678 186.552803 50.97 183.05 50.97 
C 179.547197 50.97 176.187389 52.361678 173.710534 54.838534 
C 171.233678 57.315389 169.842 60.675197 169.842 64.178 
C 169.842 67.680803 171.233678 71.040611 173.710534 73.517466 
C 176.187389 75.994322 179.547197 77.386 183.05 77.386 
z
" clip-path="url(#pd49abf1fda)" style="fill: #94d2bd; stroke: #005f73; stroke-width: 1.8; stroke-linejoin: miter"/>
   </g>
   <g id="patch_7">
    <path d="M 232.58 90.594 
C 236.082803 90.594 239.442611 89.202322 241.919466 86.725466 
C 244.396322 84.248611 245.788 80.888803 245.788 77.386 
C 245.788 73.883197 244.396322 70.523389 241.919466 68.046534 
C 239.442611 65.569678 236.082803 64.178 232.58 64.178 
C 229.077197 64.178 225.717389 65.569678 223.240534 68.046534 
C 220.763678 70.523389 219.372 73.883197 219.372 77.386 
C 219.372 80.888803 220.763678 84.248611 223.240534 86.725466 
C 225.717389 89.202322 229.077197 90.594 232.58 90.594 
z
" clip-path="url(#pd49abf1fda)" style="fill: #94d2bd; stroke: #005f73; stroke-width: 1.8; stroke-linejoin: miter"/>
   </g>
   <g id="patch_8">
    <path d="M 118.989104 73.787134 
Q 150.032285 69.130657 179.748669 64.6732 
" clip-path="url(#pd49abf1fda)" style="fill: none; opacity: 0.5; stroke: #6c757d; stroke-width: 1.2; stroke-linecap: round"/>
    <path d="M 174.220515 62.873335 
L 179.748669 64.6732 
L 174.991886 68.015804 
z
" clip-path="url(#pd49abf1fda)" style="fill: #6c757d; opacity: 0.5; stroke: #6c757d; stroke-width: 1.2; stroke-linecap: round"/>
   </g>
   <g id="patch_9">
    <path d="M 184.981743 64.693131 
Q 207.814903 70.781974 229.351724 76.525126 
" clip-path="url(#pd49abf1fda)" style="fill: none; opacity: 0.5; stroke: #6c757d; stroke-width: 1.2; stroke-linecap: round"/>
    <path d="M 224.997225 72.67307 
L 229.351724 76.525126 
L 223.657379 77.697491 
z
" clip-path="url(#pd49abf1fda)" style="fill: #6c757d; opacity: 0.5; stroke: #6c757d; stroke-width: 1.2; stroke-linecap: round"/>
   </g>
   <g id="patch_10">
    <path d="M 100.5 177.1064 
C 103.302242 177.1064 105.990089 175.993057 107.971573 174.011573 
C 109.953057 172.030089 111.0664 169.342242 111.0664 166.54 
C 111.0664 163.737758 109.953057 161.049911 107.971573 159.068427 
C 105.990089 157.086943 103.302242 155.9736 100.5 155.9736 
C 97.697758 155.9736 95.009911 157.086943 93.028427 159.068427 
C 91.046943 161.049911 89.9336 163.737758 89.9336 166.54 
C 89.9336 169.342242 91.046943 172.030089 93.028427 174.011573 
C 95.009911 175.993057 97.697758 177.1064 100.5 177.1064 
z
" clip-path="url(#pd49abf1fda)" style="fill: #0a9396; opacity: 0.85; stroke: #005f73; stroke-width: 1.6; stroke-linejoin: miter"/>
   </g>
   <g id="patch_11">
    <path d="M 150.03 160.5964 
C 152.832242 160.5964 155.520089 159.483057 157.501573 157.501573 
C 159.483057 155.520089 160.5964 152.832242 160.5964 150.03 
C 160.5964 147.227758 159.483057 144.539911 157.501573 142.558427 
C 155.520089 140.576943 152.832242 139.4636 150.03 139.4636 
C 147.227758 139.4636 144.539911 140.576943 142.558427 142.558427 
C 140.576943 144.539911 139.4636 147.227758 139.4636 150.03 
C 139.4636 152.832242 140.576943 155.520089 142.558427 157.501573 
C 144.539911 159.483057 147.227758 160.5964 150.03 160.5964 
z
" clip-path="url(#pd49abf1fda)" style="fill: #0a9396; opacity: 0.85; stroke: #005f73; stroke-width: 1.6; stroke-linejoin: miter"/>
   </g>
   <g id="patch_12">
    <path d="M 206.164 173.8044 
C 208.966242 173.8044 211.654089 172.691057 213.635573 170.709573 
C 215.617057 168.728089 216.7304 166.040242 216.7304 163.238 
C 216.7304 160.435758 215.617057 157.747911 213.635573 155.766427 
C 211.654089 153.784943 208.966242 152.6716 206.164 152.6716 
C 203.361758 152.6716 200.673911 153.784943 198.692427 155.766427 
C 196.710943 157.747911 195.5976 160.435758 195.5976 163.238 
C 195.5976 166.040242 196.710943 168.728089 198.692427 170.709573 
C 200.673911 172.691057 203.361758 173.8044 206.164 173.8044 
z
" clip-path="url(#pd49abf1fda)" style="fill: #0a9396; opacity: 0.85; stroke: #005f73; stroke-width: 1.6; stroke-linejoin: miter"/>
   </g>
   <g id="patch_13">
    <path d="M 252.392 163.8984 
C 255.194242 163.8984 257.882089 162.785057 259.863573 160.803573 
C 261.845057 158.822089 262.9584 156.134242 262.9584 153.332 
C 262.9584 150.529758 261.845057 147.841911 259.863573 145.860427 
C 257.882089 143.878943 255.194242 142.7656 252.392 142.7656 
C 249.589758 142.7656 246.901911 143.878943 244.920427 145.860427 
C 242.938943 147.841911 241.8256 150.529758 241.8256 153.332 
C 241.8256 156.134242 242.938943 158.822089 244.920427 160.803573 
C 246.901911 162.785057 249.589758 163.8984 252.392 163.8984 
z
" clip-path="url(#pd49abf1fda)" style="fill: #0a9396; opacity: 0.85; stroke: #005f73; stroke-width: 1.6; stroke-linejoin: miter"/>
   </g>
   <g id="patch_14">
    <path d="M 121.345029 260.648658 
C 122.395869 260.648658 123.403812 260.231154 124.146869 259.488098 
C 124.889925 258.745041 125.307429 257.737098 125.307429 256.686258 
C 125.307429 255.635417 124.889925 254.627474 124.146869 253.884418 
C 123.403812 253.141361 122.395869 252.723858 121.345029 252.723858 
C 120.294188 252.723858 119.286245 253.141361 118.543189 253.884418 
C 117.800132 254.627474 117.382629 255.635417 117.382629 256.686258 
C 117.382629 257.737098 117.800132 258.745041 118.543189 259.488098 
C 119.286245 260.231154 120.294188 260.648658 121.345029 260.648658 
z
" clip-path="url(#pd49abf1fda)" style="fill: #ffd166; opacity: 0.95; stroke: #ca6702; stroke-linejoin: miter"/>
   </g>
   <g id="patch_15">
    <path d="M 129.869243 268.746704 
C 130.920084 268.746704 131.928026 268.329201 132.671083 267.586144 
C 133.414139 266.843087 133.831643 265.835145 133.831643 264.784304 
C 133.831643 263.733463 133.414139 262.725521 132.671083 261.982464 
C 131.928026 261.239408 130.920084 260.821904 129.869243 260.821904 
C 128.818402 260.821904 127.81046 261.239408 127.067403 261.982464 
C 126.324346 262.725521 125.906843 263.733463 125.906843 264.784304 
C 125.906843 265.835145 126.324346 266.843087 127.067403 267.586144 
C 127.81046 268.329201 128.818402 268.746704 129.869243 268.746704 
z
" clip-path="url(#pd49abf1fda)" style="fill: #ffd166; opacity: 0.95; stroke: #ca6702; stroke-linejoin: miter"/>
   </g>
   <g id="patch_16">
    <path d="M 249.076138 262.458055 
C 250.126978 262.458055 251.134921 262.040551 251.877978 261.297494 
C 252.621034 260.554438 253.038538 259.546495 253.038538 258.495655 
C 253.038538 257.444814 252.621034 256.436871 251.877978 255.693815 
C 251.134921 254.950758 250.126978 254.533255 249.076138 254.533255 
C 248.025297 254.533255 247.017354 254.950758 246.274298 255.693815 
C 245.531241 256.436871 245.113738 257.444814 245.113738 258.495655 
C 245.113738 259.546495 245.531241 260.554438 246.274298 261.297494 
C 247.017354 262.040551 248.025297 262.458055 249.076138 262.458055 
z
" clip-path="url(#pd49abf1fda)" style="fill: #ffd166; opacity: 0.95; stroke: #ca6702; stroke-linejoin: miter"/>
   </g>
   <g id="patch_17">
    <path d="M 82.121451 255.915922 
C 83.172292 255.915922 84.180234 255.498418 84.923291 254.755362 
C 85.666347 254.012305 86.083851 253.004363 86.083851 251.953522 
C 86.083851 250.902681 85.666347 249.894739 84.923291 249.151682 
C 84.180234 248.408625 83.172292 247.991122 82.121451 247.991122 
C 81.07061 247.991122 80.062668 248.408625 79.319611 249.151682 
C 78.576554 249.894739 78.159051 250.902681 78.159051 251.953522 
C 78.159051 253.004363 78.576554 254.012305 79.319611 254.755362 
C 80.062668 255.498418 81.07061 255.915922 82.121451 255.915922 
z
" clip-path="url(#pd49abf1fda)" style="fill: #ffd166; opacity: 0.95; stroke: #ca6702; stroke-linejoin: miter"/>
   </g>
   <g id="patch_18">
    <path d="M 199.583236 240.853118 
C 200.634076 240.853118 201.642019 240.435615 202.385075 239.692558 
C 203.128132 238.949502 203.545636 237.941559 203.545636 236.890718 
C 203.545636 235.839878 203.128132 234.831935 202.385075 234.088878 
C 201.642019 233.345822 200.634076 232.928318 199.583236 232.928318 
C 198.532395 232.928318 197.524452 233.345822 196.781396 234.088878 
C 196.038339 234.831935 195.620836 235.839878 195.620836 236.890718 
C 195.620836 237.941559 196.038339 238.949502 196.781396 239.692558 
C 197.524452 240.435615 198.532395 240.853118 199.583236 240.853118 
z
" clip-path="url(#pd49abf1fda)" style="fill: #ffd166; opacity: 0.95; stroke: #ca6702; stroke-linejoin: miter"/>
   </g>
   <g id="patch_19">
    <path d="M 229.27548 245.435454 
C 230.326321 245.435454 231.334263 245.017951 232.07732 244.274894 
C 232.820377 243.531838 233.23788 242.523895 233.23788 241.473054 
C 233.23788 240.422214 232.820377 239.414271 232.07732 238.671214 
C 231.334263 237.928158 230.326321 237.510654 229.27548 237.510654 
C 228.224639 237.510654 227.216697 237.928158 226.47364 238.671214 
C 225.730584 239.414271 225.31308 240.422214 225.31308 241.473054 
C 225.31308 242.523895 225.730584 243.531838 226.47364 244.274894 
C 227.216697 245.017951 228.224639 245.435454 229.27548 245.435454 
z
" clip-path="url(#pd49abf1fda)" style="fill: #ffd166; opacity: 0.95; stroke: #ca6702; stroke-linejoin: miter"/>
   </g>
   <g id="patch_20">
    <path d="M 104.307454 263.560159 
C 105.358295 263.560159 106.366237 263.142656 107.109294 262.399599 
C 107.852351 261.656542 108.269854 260.6486 108.269854 259.597759 
C 108.269854 258.546918 107.852351 257.538976 107.109294 256.795919 
C 106.366237 256.052863 105.358295 255.635359 104.307454 255.635359 
C 103.256613 255.635359 102.248671 256.052863 101.505614 256.795919 
C 100.762558 257.538976 100.345054 258.546918 100.345054 259.597759 
C 100.345054 260.6486 100.762558 261.656542 101.505614 262.399599 
C 102.248671 263.142656 103.256613 263.560159 104.307454 263.560159 
z
" clip-path="url(#pd49abf1fda)" style="fill: #ffd166; opacity: 0.95; stroke: #ca6702; stroke-linejoin: miter"/>
   </g>
   <g id="patch_21">
    <path d="M 73.622591 239.54523 
C 74.673432 239.54523 75.681375 239.127726 76.424431 238.38467 
C 77.167488 237.641613 77.584991 236.63367 77.584991 235.58283 
C 77.584991 234.531989 77.167488 233.524046 76.424431 232.78099 
C 75.681375 232.037933 74.673432 231.62043 73.622591 231.62043 
C 72.571751 231.62043 71.563808 232.037933 70.820752 232.78099 
C 70.077695 233.524046 69.660191 234.531989 69.660191 235.58283 
C 69.660191 236.63367 70.077695 237.641613 70.820752 238.38467 
C 71.563808 239.127726 72.571751 239.54523 73.622591 239.54523 
z
" clip-path="url(#pd49abf1fda)" style="fill: #ffd166; opacity: 0.95; stroke: #ca6702; stroke-linejoin: miter"/>
   </g>
   <g id="patch_22">
    <path d="M 124.43242 257.507067 
C 125.48326 257.507067 126.491203 257.089563 127.23426 256.346507 
C 127.977316 255.60345 128.39482 254.595507 128.39482 253.544667 
C 128.39482 252.493826 127.977316 251.485883 127.23426 250.742827 
C 126.491203 249.99977 125.48326 249.582267 124.43242 249.582267 
C 123.381579 249.582267 122.373636 249.99977 121.63058 250.742827 
C 120.887523 251.485883 120.47002 252.493826 120.47002 253.544667 
C 120.47002 254.595507 120.887523 255.60345 121.63058 256.346507 
C 122.373636 257.089563 123.381579 257.507067 124.43242 257.507067 
z
" clip-path="url(#pd49abf1fda)" style="fill: #ffd166; opacity: 0.95; stroke: #ca6702; stroke-linejoin: miter"/>
   </g>
   <g id="patch_23">
    <path d="M 212.835067 248.6769 
C 213.885908 248.6769 214.89385 248.259396 215.636907 247.51634 
C 216.379964 246.773283 216.797467 245.76534 216.797467 244.7145 
C 216.797467 243.663659 216.379964 242.655716 215.636907 241.91266 
C 214.89385 241.169603 213.885908 240.7521 212.835067 240.7521 
C 211.784226 240.7521 210.776284 241.169603 210.033227 241.91266 
C 209.290171 242.655716 208.872667 243.663659 208.872667 244.7145 
C 208.872667 245.76534 209.290171 246.773283 210.033227 247.51634 
C 210.776284 248.259396 211.784226 248.6769 212.835067 248.6769 
z
" clip-path="url(#pd49abf1fda)" style="fill: #ffd166; opacity: 0.95; stroke: #ca6702; stroke-linejoin: miter"/>
   </g>
   <g id="patch_24">
    <path d="M 190.838085 271.918418 
C 191.888926 271.918418 192.896869 271.500914 193.639925 270.757858 
C 194.382982 270.014801 194.800485 269.006858 194.800485 267.956018 
C 194.800485 266.905177 194.382982 265.897234 193.639925 265.154178 
C 192.896869 264.411121 191.888926 263.993618 190.838085 263.993618 
C 189.787245 263.993618 188.779302 264.411121 188.036245 265.154178 
C 187.293189 265.897234 186.875685 266.905177 186.875685 267.956018 
C 186.875685 269.006858 187.293189 270.014801 188.036245 270.757858 
C 188.779302 271.500914 189.787245 271.918418 190.838085 271.918418 
z
" clip-path="url(#pd49abf1fda)" style="fill: #ffd166; opacity: 0.95; stroke: #ca6702; stroke-linejoin: miter"/>
   </g>
   <g id="patch_25">
    <path d="M 95.561392 272.023966 
C 96.612232 272.023966 97.620175 271.606463 98.363231 270.863406 
C 99.106288 270.120349 99.523792 269.112407 99.523792 268.061566 
C 99.523792 267.010725 99.106288 266.002783 98.363231 265.259726 
C 97.620175 264.51667 96.612232 264.099166 95.561392 264.099166 
C 94.510551 264.099166 93.502608 264.51667 92.759552 265.259726 
C 92.016495 266.002783 91.598992 267.010725 91.598992 268.061566 
C 91.598992 269.112407 92.016495 270.120349 92.759552 270.863406 
C 93.502608 271.606463 94.510551 272.023966 95.561392 272.023966 
z
" clip-path="url(#pd49abf1fda)" style="fill: #ffd166; opacity: 0.95; stroke: #ca6702; stroke-linejoin: miter"/>
   </g>
   <g id="patch_26">
    <path d="M 160.874281 268.166019 
C 161.925122 268.166019 162.933064 267.748516 163.676121 267.005459 
C 164.419178 266.262403 164.836681 265.25446 164.836681 264.203619 
C 164.836681 263.152779 164.419178 262.144836 163.676121 261.401779 
C 162.933064 260.658723 161.925122 260.241219 160.874281 260.241219 
C 159.82344 260.241219 158.815498 260.658723 158.072441 261.401779 
C 157.329384 262.144836 156.911881 263.152779 156.911881 264.203619 
C 156.911881 265.25446 157.329384 266.262403 158.072441 267.005459 
C 158.815498 267.748516 159.82344 268.166019 160.874281 268.166019 
z
" clip-path="url(#pd49abf1fda)" style="fill: #ffd166; opacity: 0.95; stroke: #ca6702; stroke-linejoin: miter"/>
   </g>
   <g id="patch_27">
    <path d="M 215.577378 241.120966 
C 216.628218 241.120966 217.636161 240.703463 218.379218 239.960406 
C 219.122274 239.217349 219.539778 238.209407 219.539778 237.158566 
C 219.539778 236.107725 219.122274 235.099783 218.379218 234.356726 
C 217.636161 233.61367 216.628218 233.196166 215.577378 233.196166 
C 214.526537 233.196166 213.518594 233.61367 212.775538 234.356726 
C 212.032481 235.099783 211.614978 236.107725 211.614978 237.158566 
C 211.614978 238.209407 212.032481 239.217349 212.775538 239.960406 
C 213.518594 240.703463 214.526537 241.120966 215.577378 241.120966 
z
" clip-path="url(#pd49abf1fda)" style="fill: #ffd166; opacity: 0.95; stroke: #ca6702; stroke-linejoin: miter"/>
   </g>
   <g id="patch_28">
    <path d="M 158.598449 249.229551 
C 159.64929 249.229551 160.657233 248.812047 161.400289 248.068991 
C 162.143346 247.325934 162.560849 246.317991 162.560849 245.267151 
C 162.560849 244.21631 162.143346 243.208367 161.400289 242.465311 
C 160.657233 241.722254 159.64929 241.304751 158.598449 241.304751 
C 157.547609 241.304751 156.539666 241.722254 155.796609 242.465311 
C 155.053553 243.208367 154.636049 244.21631 154.636049 245.267151 
C 154.636049 246.317991 155.053553 247.325934 155.796609 248.068991 
C 156.539666 248.812047 157.547609 249.229551 158.598449 249.229551 
z
" clip-path="url(#pd49abf1fda)" style="fill: #ffd166; opacity: 0.95; stroke: #ca6702; stroke-linejoin: miter"/>
   </g>
   <g id="patch_29">
    <path d="M 207.230242 242.51626 
C 208.281083 242.51626 209.289025 242.098756 210.032082 241.3557 
C 210.775139 240.612643 211.192642 239.604701 211.192642 238.55386 
C 211.192642 237.503019 210.775139 236.495077 210.032082 235.75202 
C 209.289025 235.008963 208.281083 234.59146 207.230242 234.59146 
C 206.179401 234.59146 205.171459 235.008963 204.428402 235.75202 
C 203.685346 236.495077 203.267842 237.503019 203.267842 238.55386 
C 203.267842 239.604701 203.685346 240.612643 204.428402 241.3557 
C 205.171459 242.098756 206.179401 242.51626 207.230242 242.51626 
z
" clip-path="url(#pd49abf1fda)" style="fill: #ffd166; opacity: 0.95; stroke: #ca6702; stroke-linejoin: miter"/>
   </g>
   <g id="patch_30">
    <path d="M 284.489146 250.631257 
C 285.539987 250.631257 286.547929 250.213754 287.290986 249.470697 
C 288.034043 248.727641 288.451546 247.719698 288.451546 246.668857 
C 288.451546 245.618017 288.034043 244.610074 287.290986 243.867017 
C 286.547929 243.123961 285.539987 242.706457 284.489146 242.706457 
C 283.438305 242.706457 282.430363 243.123961 281.687306 243.867017 
C 280.94425 244.610074 280.526746 245.618017 280.526746 246.668857 
C 280.526746 247.719698 280.94425 248.727641 281.687306 249.470697 
C 282.430363 250.213754 283.438305 250.631257 284.489146 250.631257 
z
" clip-path="url(#pd49abf1fda)" style="fill: #ffd166; opacity: 0.95; stroke: #ca6702; stroke-linejoin: miter"/>
   </g>
   <g id="patch_31">
    <path d="M 218.759603 260.057564 
C 219.810444 260.057564 220.818386 259.640061 221.561443 258.897004 
C 222.3045 258.153947 222.722003 257.146005 222.722003 256.095164 
C 222.722003 255.044323 222.3045 254.036381 221.561443 253.293324 
C 220.818386 252.550267 219.810444 252.132764 218.759603 252.132764 
C 217.708762 252.132764 216.70082 252.550267 215.957763 253.293324 
C 215.214706 254.036381 214.797203 255.044323 214.797203 256.095164 
C 214.797203 257.146005 215.214706 258.153947 215.957763 258.897004 
C 216.70082 259.640061 217.708762 260.057564 218.759603 260.057564 
z
" clip-path="url(#pd49abf1fda)" style="fill: #ffd166; opacity: 0.95; stroke: #ca6702; stroke-linejoin: miter"/>
   </g>
   <g id="line2d_1">
    <path d="M 100.5 166.54 
L 150.03 150.03 
" clip-path="url(#pd49abf1fda)" style="fill: none; stroke: #6c757d; stroke-opacity: 0.55; stroke-width: 1.4; stroke-linecap: square"/>
   </g>
   <g id="line2d_2">
    <path d="M 150.03 150.03 
L 206.164 163.238 
" clip-path="url(#pd49abf1fda)" style="fill: none; stroke: #6c757d; stroke-opacity: 0.55; stroke-width: 1.4; stroke-linecap: square"/>
   </g>
   <g id="line2d_3">
    <path d="M 206.164 163.238 
L 252.392 153.332 
" clip-path="url(#pd49abf1fda)" style="fill: none; stroke: #6c757d; stroke-opacity: 0.55; stroke-width: 1.4; stroke-linecap: square"/>
   </g>
   <g id="line2d_4">
    <path d="M 121.345029 256.686258 
L 158.598449 245.267151 
" clip-path="url(#pd49abf1fda)" style="fill: none; stroke: #adb5bd; stroke-opacity: 0.25; stroke-width: 0.9; stroke-linecap: square"/>
   </g>
   <g id="line2d_5">
    <path d="M 129.869243 264.784304 
L 215.577378 237.158566 
" clip-path="url(#pd49abf1fda)" style="fill: none; stroke: #adb5bd; stroke-opacity: 0.25; stroke-width: 0.9; stroke-linecap: square"/>
   </g>
   <g id="line2d_6">
    <path d="M 249.076138 258.495655 
L 158.598449 245.267151 
" clip-path="url(#pd49abf1fda)" style="fill: none; stroke: #adb5bd; stroke-opacity: 0.25; stroke-width: 0.9; stroke-linecap: square"/>
   </g>
   <g id="line2d_7">
    <path d="M 82.121451 251.953522 
L 199.583236 236.890718 
" clip-path="url(#pd49abf1fda)" style="fill: none; stroke: #adb5bd; stroke-opacity: 0.25; stroke-width: 0.9; stroke-linecap: square"/>
   </g>
   <g id="line2d_8">
    <path d="M 82.121451 251.953522 
L 104.307454 259.597759 
" clip-path="url(#pd49abf1fda)" style="fill: none; stroke: #adb5bd; stroke-opacity: 0.25; stroke-width: 0.9; stroke-linecap: square"/>
   </g>
   <g id="line2d_9">
    <path d="M 82.121451 251.953522 
L 212.835067 244.7145 
" clip-path="url(#pd49abf1fda)" style="fill: none; stroke: #adb5bd; stroke-opacity: 0.25; stroke-width: 0.9; stroke-linecap: square"/>
   </g>
   <g id="line2d_10">
    <path d="M 82.121451 251.953522 
L 215.577378 237.158566 
" clip-path="url(#pd49abf1fda)" style="fill: none; stroke: #adb5bd; stroke-opacity: 0.25; stroke-width: 0.9; stroke-linecap: square"/>
   </g>
   <g id="line2d_11">
    <path d="M 82.121451 251.953522 
L 218.759603 256.095164 
" clip-path="url(#pd49abf1fda)" style="fill: none; stroke: #adb5bd; stroke-opacity: 0.25; stroke-width: 0.9; stroke-linecap: square"/>
   </g>
   <g id="line2d_12">
    <path d="M 199.583236 236.890718 
L 215.577378 237.158566 
" clip-path="url(#pd49abf1fda)" style="fill: none; stroke: #adb5bd; stroke-opacity: 0.25; stroke-width: 0.9; stroke-linecap: square"/>
   </g>
   <g id="line2d_13">
    <path d="M 199.583236 236.890718 
L 218.759603 256.095164 
" clip-path="url(#pd49abf1fda)" style="fill: none; stroke: #adb5bd; stroke-opacity: 0.25; stroke-width: 0.9; stroke-linecap: square"/>
   </g>
   <g id="line2d_14">
    <path d="M 229.27548 241.473054 
L 160.874281 264.203619 
" clip-path="url(#pd49abf1fda)" style="fill: none; stroke: #adb5bd; stroke-opacity: 0.25; stroke-width: 0.9; stroke-linecap: square"/>
   </g>
   <g id="line2d_15">
    <path d="M 104.307454 259.597759 
L 218.759603 256.095164 
" clip-path="url(#pd49abf1fda)" style="fill: none; stroke: #adb5bd; stroke-opacity: 0.25; stroke-width: 0.9; stroke-linecap: square"/>
   </g>
   <g id="line2d_16">
    <path d="M 73.622591 235.58283 
L 207.230242 238.55386 
" clip-path="url(#pd49abf1fda)" style="fill: none; stroke: #adb5bd; stroke-opacity: 0.25; stroke-width: 0.9; stroke-linecap: square"/>
   </g>
   <g id="line2d_17">
    <path d="M 158.598449 245.267151 
L 284.489146 246.668857 
" clip-path="url(#pd49abf1fda)" style="fill: none; stroke: #adb5bd; stroke-opacity: 0.25; stroke-width: 0.9; stroke-linecap: square"/>
   </g>
   <g id="line2d_18">
    <path d="M 207.230242 238.55386 
L 218.759603 256.095164 
" clip-path="url(#pd49abf1fda)" style="fill: none; stroke: #adb5bd; stroke-opacity: 0.25; stroke-width: 0.9; stroke-linecap: square"/>
   </g>
   <g id="line2d_19">
    <path d="M 117.01 87.292 
L 100.5 156.634 
" clip-path="url(#pd49abf1fda)" style="fill: none; stroke-dasharray: 4,4; stroke-dashoffset: 0; stroke: #6c757d; stroke-opacity: 0.45"/>
   </g>
   <g id="line2d_20">
    <path d="M 183.05 77.386 
L 150.03 140.124 
" clip-path="url(#pd49abf1fda)" style="fill: none; stroke-dasharray: 4,4; stroke-dashoffset: 0; stroke: #6c757d; stroke-opacity: 0.45"/>
   </g>
   <g id="line2d_21">
    <path d="M 232.58 90.594 
L 206.164 153.332 
" clip-path="url(#pd49abf1fda)" style="fill: none; stroke-dasharray: 4,4; stroke-dashoffset: 0; stroke: #6c757d; stroke-opacity: 0.45"/>
   </g>
   <g id="line2d_22">
    <path d="M 206.164 173.144 
L 199.583236 233.588718 
" clip-path="url(#pd49abf1fda)" style="fill: none; stroke-dasharray: 3.6,3.6; stroke-dashoffset: 0; stroke: #6c757d; stroke-opacity: 0.4; stroke-width: 0.9"/>
   </g>
   <g id="text_1">
    <!-- Hierarchical Graph (Data Structure) -->
    <g style="fill: #212529" transform="translate(8.044 17.162125) scale(0.12 -0.12)">
     <defs>
      <path id="DejaVuSans-Bold-48" d="M 588 4666 
L 1791 4666 
L 1791 2888 
L 3566 2888 
L 3566 4666 
L 4769 4666 
L 4769 0 
L 3566 0 
L 3566 1978 
L 1791 1978 
L 1791 0 
L 588 0 
L 588 4666 
z
" transform="scale(0.015625)"/>
      <path id="DejaVuSans-Bold-69" d="M 538 3500 
L 1656 3500 
L 1656 0 
L 538 0 
L 538 3500 
z
M 538 4863 
L 1656 4863 
L 1656 3950 
L 538 3950 
L 538 4863 
z
" transform="scale(0.015625)"/>
      <path id="DejaVuSans-Bold-65" d="M 4031 1759 
L 4031 1441 
L 1416 1441 
Q 1456 1047 1700 850 
Q 1944 653 2381 653 
Q 2734 653 3104 758 
Q 3475 863 3866 1075 
L 3866 213 
Q 3469 63 3072 -14 
Q 2675 -91 2278 -91 
Q 1328 -91 801 392 
Q 275 875 275 1747 
Q 275 2603 792 3093 
Q 1309 3584 2216 3584 
Q 3041 3584 3536 3087 
Q 4031 2591 4031 1759 
z
M 2881 2131 
Q 2881 2450 2695 2645 
Q 2509 2841 2209 2841 
Q 1884 2841 1681 2658 
Q 1478 2475 1428 2131 
L 2881 2131 
z
" transform="scale(0.015625)"/>
      <path id="DejaVuSans-Bold-72" d="M 3138 2547 
Q 2991 2616 2845 2648 
Q 2700 2681 2553 2681 
Q 2122 2681 1889 2404 
Q 1656 2128 1656 1613 
L 1656 0 
L 538 0 
L 538 3500 
L 1656 3500 
L 1656 2925 
Q 1872 3269 2151 3426 
Q 2431 3584 2822 3584 
Q 2878 3584 2943 3579 
Q 3009 3575 3134 3559 
L 3138 2547 
z
" transform="scale(0.015625)"/>
      <path id="DejaVuSans-Bold-61" d="M 2106 1575 
Q 1756 1575 1579 1456 
Q 1403 1338 1403 1106 
Q 1403 894 1545 773 
Q 1688 653 1941 653 
Q 2256 653 2472 879 
Q 2688 1106 2688 1447 
L 2688 1575 
L 2106 1575 
z
M 3816 1997 
L 3816 0 
L 2688 0 
L 2688 519 
Q 2463 200 2181 54 
Q 1900 -91 1497 -91 
Q 953 -91 614 226 
Q 275 544 275 1050 
Q 275 1666 698 1953 
Q 1122 2241 2028 2241 
L 2688 2241 
L 2688 2328 
Q 2688 2594 2478 2717 
Q 2269 2841 1825 2841 
Q 1466 2841 1156 2769 
Q 847 2697 581 2553 
L 581 3406 
Q 941 3494 1303 3539 
Q 1666 3584 2028 3584 
Q 2975 3584 3395 3211 
Q 3816 2838 3816 1997 
z
" transform="scale(0.015625)"/>
      <path id="DejaVuSans-Bold-63" d="M 3366 3391 
L 3366 2478 
Q 3138 2634 2908 2709 
Q 2678 2784 2431 2784 
Q 1963 2784 1702 2511 
Q 1441 2238 1441 1747 
Q 1441 1256 1702 982 
Q 1963 709 2431 709 
Q 2694 709 2930 787 
Q 3166 866 3366 1019 
L 3366 103 
Q 3103 6 2833 -42 
Q 2563 -91 2291 -91 
Q 1344 -91 809 395 
Q 275 881 275 1747 
Q 275 2613 809 3098 
Q 1344 3584 2291 3584 
Q 2566 3584 2833 3536 
Q 3100 3488 3366 3391 
z
" transform="scale(0.015625)"/>
      <path id="DejaVuSans-Bold-68" d="M 4056 2131 
L 4056 0 
L 2931 0 
L 2931 347 
L 2931 1625 
Q 2931 2084 2911 2256 
Q 2891 2428 2841 2509 
Q 2775 2619 2662 2680 
Q 2550 2741 2406 2741 
Q 2056 2741 1856 2470 
Q 1656 2200 1656 1722 
L 1656 0 
L 538 0 
L 538 4863 
L 1656 4863 
L 1656 2988 
Q 1909 3294 2193 3439 
Q 2478 3584 2822 3584 
Q 3428 3584 3742 3212 
Q 4056 2841 4056 2131 
z
" transform="scale(0.015625)"/>
      <path id="DejaVuSans-Bold-6c" d="M 538 4863 
L 1656 4863 
L 1656 0 
L 538 0 
L 538 4863 
z
" transform="scale(0.015625)"/>
      <path id="DejaVuSans-Bold-20" transform="scale(0.015625)"/>
      <path id="DejaVuSans-Bold-47" d="M 4781 347 
Q 4331 128 3847 18 
Q 3363 -91 2847 -91 
Q 1681 -91 1000 561 
Q 319 1213 319 2328 
Q 319 3456 1012 4103 
Q 1706 4750 2913 4750 
Q 3378 4750 3804 4662 
Q 4231 4575 4609 4403 
L 4609 3438 
Q 4219 3659 3833 3768 
Q 3447 3878 3059 3878 
Q 2341 3878 1952 3476 
Q 1563 3075 1563 2328 
Q 1563 1588 1938 1184 
Q 2313 781 3003 781 
Q 3191 781 3352 804 
Q 3513 828 3641 878 
L 3641 1784 
L 2906 1784 
L 2906 2591 
L 4781 2591 
L 4781 347 
z
" transform="scale(0.015625)"/>
      <path id="DejaVuSans-Bold-70" d="M 1656 506 
L 1656 -1331 
L 538 -1331 
L 538 3500 
L 1656 3500 
L 1656 2988 
Q 1888 3294 2169 3439 
Q 2450 3584 2816 3584 
Q 3463 3584 3878 3070 
Q 4294 2556 4294 1747 
Q 4294 938 3878 423 
Q 3463 -91 2816 -91 
Q 2450 -91 2169 54 
Q 1888 200 1656 506 
z
M 2400 2772 
Q 2041 2772 1848 2508 
Q 1656 2244 1656 1747 
Q 1656 1250 1848 986 
Q 2041 722 2400 722 
Q 2759 722 2948 984 
Q 3138 1247 3138 1747 
Q 3138 2247 2948 2509 
Q 2759 2772 2400 2772 
z
" transform="scale(0.015625)"/>
      <path id="DejaVuSans-Bold-28" d="M 2413 -844 
L 1484 -844 
Q 1006 -72 778 623 
Q 550 1319 550 2003 
Q 550 2688 779 3389 
Q 1009 4091 1484 4856 
L 2413 4856 
Q 2013 4116 1813 3408 
Q 1613 2700 1613 2009 
Q 1613 1319 1811 609 
Q 2009 -100 2413 -844 
z
" transform="scale(0.015625)"/>
      <path id="DejaVuSans-Bold-44" d="M 1791 3756 
L 1791 909 
L 2222 909 
Q 2959 909 3348 1275 
Q 3738 1641 3738 2338 
Q 3738 3031 3350 3393 
Q 2963 3756 2222 3756 
L 1791 3756 
z
M 588 4666 
L 1856 4666 
Q 2919 4666 3439 4514 
Q 3959 4363 4331 4000 
Q 4659 3684 4818 3271 
Q 4978 2859 4978 2338 
Q 4978 1809 4818 1395 
Q 4659 981 4331 666 
Q 3956 303 3431 151 
Q 2906 0 1856 0 
L 588 0 
L 588 4666 
z
" transform="scale(0.015625)"/>
      <path id="DejaVuSans-Bold-74" d="M 1759 4494 
L 1759 3500 
L 2913 3500 
L 2913 2700 
L 1759 2700 
L 1759 1216 
Q 1759 972 1856 886 
Q 1953 800 2241 800 
L 2816 800 
L 2816 0 
L 1856 0 
Q 1194 0 917 276 
Q 641 553 641 1216 
L 641 2700 
L 84 2700 
L 84 3500 
L 641 3500 
L 641 4494 
L 1759 4494 
z
" transform="scale(0.015625)"/>
      <path id="DejaVuSans-Bold-53" d="M 3834 4519 
L 3834 3531 
Q 3450 3703 3084 3790 
Q 2719 3878 2394 3878 
Q 1963 3878 1756 3759 
Q 1550 3641 1550 3391 
Q 1550 3203 1689 3098 
Q 1828 2994 2194 2919 
L 2706 2816 
Q 3484 2659 3812 2340 
Q 4141 2022 4141 1434 
Q 4141 663 3683 286 
Q 3225 -91 2284 -91 
Q 1841 -91 1394 -6 
Q 947 78 500 244 
L 500 1259 
Q 947 1022 1364 901 
Q 1781 781 2169 781 
Q 2563 781 2772 912 
Q 2981 1044 2981 1288 
Q 2981 1506 2839 1625 
Q 2697 1744 2272 1838 
L 1806 1941 
Q 1106 2091 782 2419 
Q 459 2747 459 3303 
Q 459 4000 909 4375 
Q 1359 4750 2203 4750 
Q 2588 4750 2994 4692 
Q 3400 4634 3834 4519 
z
" transform="scale(0.015625)"/>
      <path id="DejaVuSans-Bold-75" d="M 500 1363 
L 500 3500 
L 1625 3500 
L 1625 3150 
Q 1625 2866 1622 2436 
Q 1619 2006 1619 1863 
Q 1619 1441 1641 1255 
Q 1663 1069 1716 984 
Q 1784 875 1895 815 
Q 2006 756 2150 756 
Q 2500 756 2700 1025 
Q 2900 1294 2900 1772 
L 2900 3500 
L 4019 3500 
L 4019 0 
L 2900 0 
L 2900 506 
Q 2647 200 2364 54 
Q 2081 -91 1741 -91 
Q 1134 -91 817 281 
Q 500 653 500 1363 
z
" transform="scale(0.015625)"/>
      <path id="DejaVuSans-Bold-29" d="M 513 -844 
Q 913 -100 1113 609 
Q 1313 1319 1313 2009 
Q 1313 2700 1113 3408 
Q 913 4116 513 4856 
L 1441 4856 
Q 1916 4091 2145 3389 
Q 2375 2688 2375 2003 
Q 2375 1319 2147 623 
Q 1919 -72 1441 -844 
L 513 -844 
z
" transform="scale(0.015625)"/>
     </defs>
     <use xlink:href="#DejaVuSans-Bold-48"/>
     <use xlink:href="#DejaVuSans-Bold-69" x="83.691406"/>
     <use xlink:href="#DejaVuSans-Bold-65" x="117.96875"/>
     <use xlink:href="#DejaVuSans-Bold-72" x="185.791016"/>
     <use xlink:href="#DejaVuSans-Bold-61" x="235.107422"/>
     <use xlink:href="#DejaVuSans-Bold-72" x="302.587891"/>
     <use xlink:href="#DejaVuSans-Bold-63" x="351.904297"/>
     <use xlink:href="#DejaVuSans-Bold-68" x="411.181641"/>
     <use xlink:href="#DejaVuSans-Bold-69" x="482.373047"/>
     <use xlink:href="#DejaVuSans-Bold-63" x="516.650391"/>
     <use xlink:href="#DejaVuSans-Bold-61" x="575.927734"/>
     <use xlink:href="#DejaVuSans-Bold-6c" x="643.408203"/>
     <use xlink:href="#DejaVuSans-Bold-20" x="677.685547"/>
     <use xlink:href="#DejaVuSans-Bold-47" x="712.5"/>
     <use xlink:href="#DejaVuSans-Bold-72" x="794.580078"/>
     <use xlink:href="#DejaVuSans-Bold-61" x="843.896484"/>
     <use xlink:href="#DejaVuSans-Bold-70" x="911.376953"/>
     <use xlink:href="#DejaVuSans-Bold-68" x="982.958984"/>
     <use xlink:href="#DejaVuSans-Bold-20" x="1054.150391"/>
     <use xlink:href="#DejaVuSans-Bold-28" x="1088.964844"/>
     <use xlink:href="#DejaVuSans-Bold-44" x="1134.667969"/>
     <use xlink:href="#DejaVuSans-Bold-61" x="1217.675781"/>
     <use xlink:href="#DejaVuSans-Bold-74" x="1285.15625"/>
     <use xlink:href="#DejaVuSans-Bold-61" x="1332.958984"/>
     <use xlink:href="#DejaVuSans-Bold-20" x="1400.439453"/>
     <use xlink:href="#DejaVuSans-Bold-53" x="1435.253906"/>
     <use xlink:href="#DejaVuSans-Bold-74" x="1507.275391"/>
     <use xlink:href="#DejaVuSans-Bold-72" x="1555.078125"/>
     <use xlink:href="#DejaVuSans-Bold-75" x="1604.394531"/>
     <use xlink:href="#DejaVuSans-Bold-63" x="1675.585938"/>
     <use xlink:href="#DejaVuSans-Bold-74" x="1734.863281"/>
     <use xlink:href="#DejaVuSans-Bold-75" x="1782.666016"/>
     <use xlink:href="#DejaVuSans-Bold-72" x="1853.857422"/>
     <use xlink:href="#DejaVuSans-Bold-65" x="1903.173828"/>
     <use xlink:href="#DejaVuSans-Bold-29" x="1970.996094"/>
    </g>
   </g>
   <g id="text_2">
    <!-- L2 Tissue / Patches -->
    <g style="fill: #6c757d" transform="translate(41.064 43.823375) scale(0.1 -0.1)">
     <defs>
      <path id="DejaVuSans-4c" d="M 628 4666 
L 1259 4666 
L 1259 531 
L 3531 531 
L 3531 0 
L 628 0 
L 628 4666 
z
" transform="scale(0.015625)"/>
      <path id="DejaVuSans-32" d="M 1228 531 
L 3431 531 
L 3431 0 
L 469 0 
L 469 531 
Q 828 903 1448 1529 
Q 2069 2156 2228 2338 
Q 2531 2678 2651 2914 
Q 2772 3150 2772 3378 
Q 2772 3750 2511 3984 
Q 2250 4219 1831 4219 
Q 1534 4219 1204 4116 
Q 875 4013 500 3803 
L 500 4441 
Q 881 4594 1212 4672 
Q 1544 4750 1819 4750 
Q 2544 4750 2975 4387 
Q 3406 4025 3406 3419 
Q 3406 3131 3298 2873 
Q 3191 2616 2906 2266 
Q 2828 2175 2409 1742 
Q 1991 1309 1228 531 
z
" transform="scale(0.015625)"/>
      <path id="DejaVuSans-20" transform="scale(0.015625)"/>
      <path id="DejaVuSans-54" d="M -19 4666 
L 3928 4666 
L 3928 4134 
L 2272 4134 
L 2272 0 
L 1638 0 
L 1638 4134 
L -19 4134 
L -19 4666 
z
" transform="scale(0.015625)"/>
      <path id="DejaVuSans-69" d="M 603 3500 
L 1178 3500 
L 1178 0 
L 603 0 
L 603 3500 
z
M 603 4863 
L 1178 4863 
L 1178 4134 
L 603 4134 
L 603 4863 
z
" transform="scale(0.015625)"/>
      <path id="DejaVuSans-73" d="M 2834 3397 
L 2834 2853 
Q 2591 2978 2328 3040 
Q 2066 3103 1784 3103 
Q 1356 3103 1142 2972 
Q 928 2841 928 2578 
Q 928 2378 1081 2264 
Q 1234 2150 1697 2047 
L 1894 2003 
Q 2506 1872 2764 1633 
Q 3022 1394 3022 966 
Q 3022 478 2636 193 
Q 2250 -91 1575 -91 
Q 1294 -91 989 -36 
Q 684 19 347 128 
L 347 722 
Q 666 556 975 473 
Q 1284 391 1588 391 
Q 1994 391 2212 530 
Q 2431 669 2431 922 
Q 2431 1156 2273 1281 
Q 2116 1406 1581 1522 
L 1381 1569 
Q 847 1681 609 1914 
Q 372 2147 372 2553 
Q 372 3047 722 3315 
Q 1072 3584 1716 3584 
Q 2034 3584 2315 3537 
Q 2597 3491 2834 3397 
z
" transform="scale(0.015625)"/>
      <path id="DejaVuSans-75" d="M 544 1381 
L 544 3500 
L 1119 3500 
L 1119 1403 
Q 1119 906 1312 657 
Q 1506 409 1894 409 
Q 2359 409 2629 706 
Q 2900 1003 2900 1516 
L 2900 3500 
L 3475 3500 
L 3475 0 
L 2900 0 
L 2900 538 
Q 2691 219 2414 64 
Q 2138 -91 1772 -91 
Q 1169 -91 856 284 
Q 544 659 544 1381 
z
M 1991 3584 
L 1991 3584 
z
" transform="scale(0.015625)"/>
      <path id="DejaVuSans-65" d="M 3597 1894 
L 3597 1613 
L 953 1613 
Q 991 1019 1311 708 
Q 1631 397 2203 397 
Q 2534 397 2845 478 
Q 3156 559 3463 722 
L 3463 178 
Q 3153 47 2828 -22 
Q 2503 -91 2169 -91 
Q 1331 -91 842 396 
Q 353 884 353 1716 
Q 353 2575 817 3079 
Q 1281 3584 2069 3584 
Q 2775 3584 3186 3129 
Q 3597 2675 3597 1894 
z
M 3022 2063 
Q 3016 2534 2758 2815 
Q 2500 3097 2075 3097 
Q 1594 3097 1305 2825 
Q 1016 2553 972 2059 
L 3022 2063 
z
" transform="scale(0.015625)"/>
      <path id="DejaVuSans-2f" d="M 1625 4666 
L 2156 4666 
L 531 -594 
L 0 -594 
L 1625 4666 
z
" transform="scale(0.015625)"/>
      <path id="DejaVuSans-50" d="M 1259 4147 
L 1259 2394 
L 2053 2394 
Q 2494 2394 2734 2622 
Q 2975 2850 2975 3272 
Q 2975 3691 2734 3919 
Q 2494 4147 2053 4147 
L 1259 4147 
z
M 628 4666 
L 2053 4666 
Q 2838 4666 3239 4311 
Q 3641 3956 3641 3272 
Q 3641 2581 3239 2228 
Q 2838 1875 2053 1875 
L 1259 1875 
L 1259 0 
L 628 0 
L 628 4666 
z
" transform="scale(0.015625)"/>
      <path id="DejaVuSans-61" d="M 2194 1759 
Q 1497 1759 1228 1600 
Q 959 1441 959 1056 
Q 959 750 1161 570 
Q 1363 391 1709 391 
Q 2188 391 2477 730 
Q 2766 1069 2766 1631 
L 2766 1759 
L 2194 1759 
z
M 3341 1997 
L 3341 0 
L 2766 0 
L 2766 531 
Q 2569 213 2275 61 
Q 1981 -91 1556 -91 
Q 1019 -91 701 211 
Q 384 513 384 1019 
Q 384 1609 779 1909 
Q 1175 2209 1959 2209 
L 2766 2209 
L 2766 2266 
Q 2766 2663 2505 2880 
Q 2244 3097 1772 3097 
Q 1472 3097 1187 3025 
Q 903 2953 641 2809 
L 641 3341 
Q 956 3463 1253 3523 
Q 1550 3584 1831 3584 
Q 2591 3584 2966 3190 
Q 3341 2797 3341 1997 
z
" transform="scale(0.015625)"/>
      <path id="DejaVuSans-74" d="M 1172 4494 
L 1172 3500 
L 2356 3500 
L 2356 3053 
L 1172 3053 
L 1172 1153 
Q 1172 725 1289 603 
Q 1406 481 1766 481 
L 2356 481 
L 2356 0 
L 1766 0 
Q 1100 0 847 248 
Q 594 497 594 1153 
L 594 3053 
L 172 3053 
L 172 3500 
L 594 3500 
L 594 4494 
L 1172 4494 
z
" transform="scale(0.015625)"/>
      <path id="DejaVuSans-63" d="M 3122 3366 
L 3122 2828 
Q 2878 2963 2633 3030 
Q 2388 3097 2138 3097 
Q 1578 3097 1268 2742 
Q 959 2388 959 1747 
Q 959 1106 1268 751 
Q 1578 397 2138 397 
Q 2388 397 2633 464 
Q 2878 531 3122 666 
L 3122 134 
Q 2881 22 2623 -34 
Q 2366 -91 2075 -91 
Q 1284 -91 818 406 
Q 353 903 353 1747 
Q 353 2603 823 3093 
Q 1294 3584 2113 3584 
Q 2378 3584 2631 3529 
Q 2884 3475 3122 3366 
z
" transform="scale(0.015625)"/>
      <path id="DejaVuSans-68" d="M 3513 2113 
L 3513 0 
L 2938 0 
L 2938 2094 
Q 2938 2591 2744 2837 
Q 2550 3084 2163 3084 
Q 1697 3084 1428 2787 
Q 1159 2491 1159 1978 
L 1159 0 
L 581 0 
L 581 4863 
L 1159 4863 
L 1159 2956 
Q 1366 3272 1645 3428 
Q 1925 3584 2291 3584 
Q 2894 3584 3203 3211 
Q 3513 2838 3513 2113 
z
" transform="scale(0.015625)"/>
     </defs>
     <use xlink:href="#DejaVuSans-4c"/>
     <use xlink:href="#DejaVuSans-32" x="55.712891"/>
     <use xlink:href="#DejaVuSans-20" x="119.335938"/>
     <use xlink:href="#DejaVuSans-54" x="151.123047"/>
     <use xlink:href="#DejaVuSans-69" x="209.082031"/>
     <use xlink:href="#DejaVuSans-73" x="236.865234"/>
     <use xlink:href="#DejaVuSans-73" x="288.964844"/>
     <use xlink:href="#DejaVuSans-75" x="341.064453"/>
     <use xlink:href="#DejaVuSans-65" x="404.443359"/>
     <use xlink:href="#DejaVuSans-20" x="465.966797"/>
     <use xlink:href="#DejaVuSans-2f" x="497.753906"/>
     <use xlink:href="#DejaVuSans-20" x="531.445312"/>
     <use xlink:href="#DejaVuSans-50" x="563.232422"/>
     <use xlink:href="#DejaVuSans-61" x="619.035156"/>
     <use xlink:href="#DejaVuSans-74" x="680.314453"/>
     <use xlink:href="#DejaVuSans-63" x="719.523438"/>
     <use xlink:href="#DejaVuSans-68" x="774.503906"/>
     <use xlink:href="#DejaVuSans-65" x="837.882812"/>
     <use xlink:href="#DejaVuSans-73" x="899.40625"/>
    </g>
   </g>
   <g id="text_3">
    <!-- L1 Cell Communities -->
    <g style="fill: #6c757d" transform="translate(41.064 129.675375) scale(0.1 -0.1)">
     <defs>
      <path id="DejaVuSans-31" d="M 794 531 
L 1825 531 
L 1825 4091 
L 703 3866 
L 703 4441 
L 1819 4666 
L 2450 4666 
L 2450 531 
L 3481 531 
L 3481 0 
L 794 0 
L 794 531 
z
" transform="scale(0.015625)"/>
      <path id="DejaVuSans-43" d="M 4122 4306 
L 4122 3641 
Q 3803 3938 3442 4084 
Q 3081 4231 2675 4231 
Q 1875 4231 1450 3742 
Q 1025 3253 1025 2328 
Q 1025 1406 1450 917 
Q 1875 428 2675 428 
Q 3081 428 3442 575 
Q 3803 722 4122 1019 
L 4122 359 
Q 3791 134 3420 21 
Q 3050 -91 2638 -91 
Q 1578 -91 968 557 
Q 359 1206 359 2328 
Q 359 3453 968 4101 
Q 1578 4750 2638 4750 
Q 3056 4750 3426 4639 
Q 3797 4528 4122 4306 
z
" transform="scale(0.015625)"/>
      <path id="DejaVuSans-6c" d="M 603 4863 
L 1178 4863 
L 1178 0 
L 603 0 
L 603 4863 
z
" transform="scale(0.015625)"/>
      <path id="DejaVuSans-6f" d="M 1959 3097 
Q 1497 3097 1228 2736 
Q 959 2375 959 1747 
Q 959 1119 1226 758 
Q 1494 397 1959 397 
Q 2419 397 2687 759 
Q 2956 1122 2956 1747 
Q 2956 2369 2687 2733 
Q 2419 3097 1959 3097 
z
M 1959 3584 
Q 2709 3584 3137 3096 
Q 3566 2609 3566 1747 
Q 3566 888 3137 398 
Q 2709 -91 1959 -91 
Q 1206 -91 779 398 
Q 353 888 353 1747 
Q 353 2609 779 3096 
Q 1206 3584 1959 3584 
z
" transform="scale(0.015625)"/>
      <path id="DejaVuSans-6d" d="M 3328 2828 
Q 3544 3216 3844 3400 
Q 4144 3584 4550 3584 
Q 5097 3584 5394 3201 
Q 5691 2819 5691 2113 
L 5691 0 
L 5113 0 
L 5113 2094 
Q 5113 2597 4934 2840 
Q 4756 3084 4391 3084 
Q 3944 3084 3684 2787 
Q 3425 2491 3425 1978 
L 3425 0 
L 2847 0 
L 2847 2094 
Q 2847 2600 2669 2842 
Q 2491 3084 2119 3084 
Q 1678 3084 1418 2786 
Q 1159 2488 1159 1978 
L 1159 0 
L 581 0 
L 581 3500 
L 1159 3500 
L 1159 2956 
Q 1356 3278 1631 3431 
Q 1906 3584 2284 3584 
Q 2666 3584 2933 3390 
Q 3200 3197 3328 2828 
z
" transform="scale(0.015625)"/>
      <path id="DejaVuSans-6e" d="M 3513 2113 
L 3513 0 
L 2938 0 
L 2938 2094 
Q 2938 2591 2744 2837 
Q 2550 3084 2163 3084 
Q 1697 3084 1428 2787 
Q 1159 2491 1159 1978 
L 1159 0 
L 581 0 
L 581 3500 
L 1159 3500 
L 1159 2956 
Q 1366 3272 1645 3428 
Q 1925 3584 2291 3584 
Q 2894 3584 3203 3211 
Q 3513 2838 3513 2113 
z
" transform="scale(0.015625)"/>
     </defs>
     <use xlink:href="#DejaVuSans-4c"/>
     <use xlink:href="#DejaVuSans-31" x="55.712891"/>
     <use xlink:href="#DejaVuSans-20" x="119.335938"/>
     <use xlink:href="#DejaVuSans-43" x="151.123047"/>
     <use xlink:href="#DejaVuSans-65" x="220.947266"/>
     <use xlink:href="#DejaVuSans-6c" x="282.470703"/>
     <use xlink:href="#DejaVuSans-6c" x="310.253906"/>
     <use xlink:href="#DejaVuSans-20" x="338.037109"/>
     <use xlink:href="#DejaVuSans-43" x="369.824219"/>
     <use xlink:href="#DejaVuSans-6f" x="439.648438"/>
     <use xlink:href="#DejaVuSans-6d" x="500.830078"/>
     <use xlink:href="#DejaVuSans-6d" x="598.242188"/>
     <use xlink:href="#DejaVuSans-75" x="695.654297"/>
     <use xlink:href="#DejaVuSans-6e" x="759.033203"/>
     <use xlink:href="#DejaVuSans-69" x="822.412109"/>
     <use xlink:href="#DejaVuSans-74" x="850.195312"/>
     <use xlink:href="#DejaVuSans-69" x="889.404297"/>
     <use xlink:href="#DejaVuSans-65" x="917.1875"/>
     <use xlink:href="#DejaVuSans-73" x="978.710938"/>
    </g>
   </g>
   <g id="text_4">
    <!-- L0 Gene Network (GRN) -->
    <g style="fill: #6c757d" transform="translate(41.064 222.131375) scale(0.1 -0.1)">
     <defs>
      <path id="DejaVuSans-30" d="M 2034 4250 
Q 1547 4250 1301 3770 
Q 1056 3291 1056 2328 
Q 1056 1369 1301 889 
Q 1547 409 2034 409 
Q 2525 409 2770 889 
Q 3016 1369 3016 2328 
Q 3016 3291 2770 3770 
Q 2525 4250 2034 4250 
z
M 2034 4750 
Q 2819 4750 3233 4129 
Q 3647 3509 3647 2328 
Q 3647 1150 3233 529 
Q 2819 -91 2034 -91 
Q 1250 -91 836 529 
Q 422 1150 422 2328 
Q 422 3509 836 4129 
Q 1250 4750 2034 4750 
z
" transform="scale(0.015625)"/>
      <path id="DejaVuSans-47" d="M 3809 666 
L 3809 1919 
L 2778 1919 
L 2778 2438 
L 4434 2438 
L 4434 434 
Q 4069 175 3628 42 
Q 3188 -91 2688 -91 
Q 1594 -91 976 548 
Q 359 1188 359 2328 
Q 359 3472 976 4111 
Q 1594 4750 2688 4750 
Q 3144 4750 3555 4637 
Q 3966 4525 4313 4306 
L 4313 3634 
Q 3963 3931 3569 4081 
Q 3175 4231 2741 4231 
Q 1884 4231 1454 3753 
Q 1025 3275 1025 2328 
Q 1025 1384 1454 906 
Q 1884 428 2741 428 
Q 3075 428 3337 486 
Q 3600 544 3809 666 
z
" transform="scale(0.015625)"/>
      <path id="DejaVuSans-4e" d="M 628 4666 
L 1478 4666 
L 3547 763 
L 3547 4666 
L 4159 4666 
L 4159 0 
L 3309 0 
L 1241 3903 
L 1241 0 
L 628 0 
L 628 4666 
z
" transform="scale(0.015625)"/>
      <path id="DejaVuSans-77" d="M 269 3500 
L 844 3500 
L 1563 769 
L 2278 3500 
L 2956 3500 
L 3675 769 
L 4391 3500 
L 4966 3500 
L 4050 0 
L 3372 0 
L 2619 2869 
L 1863 0 
L 1184 0 
L 269 3500 
z
" transform="scale(0.015625)"/>
      <path id="DejaVuSans-72" d="M 2631 2963 
Q 2534 3019 2420 3045 
Q 2306 3072 2169 3072 
Q 1681 3072 1420 2755 
Q 1159 2438 1159 1844 
L 1159 0 
L 581 0 
L 581 3500 
L 1159 3500 
L 1159 2956 
Q 1341 3275 1631 3429 
Q 1922 3584 2338 3584 
Q 2397 3584 2469 3576 
Q 2541 3569 2628 3553 
L 2631 2963 
z
" transform="scale(0.015625)"/>
      <path id="DejaVuSans-6b" d="M 581 4863 
L 1159 4863 
L 1159 1991 
L 2875 3500 
L 3609 3500 
L 1753 1863 
L 3688 0 
L 2938 0 
L 1159 1709 
L 1159 0 
L 581 0 
L 581 4863 
z
" transform="scale(0.015625)"/>
      <path id="DejaVuSans-28" d="M 1984 4856 
Q 1566 4138 1362 3434 
Q 1159 2731 1159 2009 
Q 1159 1288 1364 580 
Q 1569 -128 1984 -844 
L 1484 -844 
Q 1016 -109 783 600 
Q 550 1309 550 2009 
Q 550 2706 781 3412 
Q 1013 4119 1484 4856 
L 1984 4856 
z
" transform="scale(0.015625)"/>
      <path id="DejaVuSans-52" d="M 2841 2188 
Q 3044 2119 3236 1894 
Q 3428 1669 3622 1275 
L 4263 0 
L 3584 0 
L 2988 1197 
Q 2756 1666 2539 1819 
Q 2322 1972 1947 1972 
L 1259 1972 
L 1259 0 
L 628 0 
L 628 4666 
L 2053 4666 
Q 2853 4666 3247 4331 
Q 3641 3997 3641 3322 
Q 3641 2881 3436 2590 
Q 3231 2300 2841 2188 
z
M 1259 4147 
L 1259 2491 
L 2053 2491 
Q 2509 2491 2742 2702 
Q 2975 2913 2975 3322 
Q 2975 3731 2742 3939 
Q 2509 4147 2053 4147 
L 1259 4147 
z
" transform="scale(0.015625)"/>
      <path id="DejaVuSans-29" d="M 513 4856 
L 1013 4856 
Q 1481 4119 1714 3412 
Q 1947 2706 1947 2009 
Q 1947 1309 1714 600 
Q 1481 -109 1013 -844 
L 513 -844 
Q 928 -128 1133 580 
Q 1338 1288 1338 2009 
Q 1338 2731 1133 3434 
Q 928 4138 513 4856 
z
" transform="scale(0.015625)"/>
     </defs>
     <use xlink:href="#DejaVuSans-4c"/>
     <use xlink:href="#DejaVuSans-30" x="55.712891"/>
     <use xlink:href="#DejaVuSans-20" x="119.335938"/>
     <use xlink:href="#DejaVuSans-47" x="151.123047"/>
     <use xlink:href="#DejaVuSans-65" x="228.613281"/>
     <use xlink:href="#DejaVuSans-6e" x="290.136719"/>
     <use xlink:href="#DejaVuSans-65" x="353.515625"/>
     <use xlink:href="#DejaVuSans-20" x="415.039062"/>
     <use xlink:href="#DejaVuSans-4e" x="446.826172"/>
     <use xlink:href="#DejaVuSans-65" x="521.630859"/>
     <use xlink:href="#DejaVuSans-74" x="583.154297"/>
     <use xlink:href="#DejaVuSans-77" x="622.363281"/>
     <use xlink:href="#DejaVuSans-6f" x="704.150391"/>
     <use xlink:href="#DejaVuSans-72" x="765.332031"/>
     <use xlink:href="#DejaVuSans-6b" x="806.445312"/>
     <use xlink:href="#DejaVuSans-20" x="864.355469"/>
     <use xlink:href="#DejaVuSans-28" x="896.142578"/>
     <use xlink:href="#DejaVuSans-47" x="935.15625"/>
     <use xlink:href="#DejaVuSans-52" x="1012.646484"/>
     <use xlink:href="#DejaVuSans-4e" x="1082.128906"/>
     <use xlink:href="#DejaVuSans-29" x="1156.933594"/>
    </g>
   </g>
  </g>
 </g>
 <defs>
  <clipPath id="pd49abf1fda">
   <rect x="1.44" y="1.44" width="330.2" height="330.2"/>
  </clipPath>
 </defs>
</svg>
